# Blender 4.2.1 LTS
# www.blender.org
mtllib puerta_bunker.mtl
o Object_5
v 1.175377 0.550000 -0.040000
v 1.175377 1.282747 -0.040000
v 1.801672 0.550000 -0.040000
v 1.175377 0.064877 -0.040000
v 1.792048 0.400000 -0.040000
v 1.792048 0.400000 -0.060000
v 1.175377 0.064877 -0.060000
v 2.398708 0.400000 -0.040000
v 3.015376 0.064877 -0.040000
v 3.015376 0.064877 -0.060000
v 2.398708 0.400000 -0.060000
v 1.199083 1.320000 -0.040000
v 1.825378 0.587253 -0.040000
v 1.825378 0.587253 -0.060000
v 1.199083 1.320000 -0.060000
v 1.801672 0.550000 -0.040000
v 1.175377 1.282747 -0.040000
v 1.175377 1.282747 -0.060000
v 1.801672 0.550000 -0.060000
v 2.053147 0.331175 -0.065000
v 2.137609 0.331175 -0.065000
v 2.095378 0.325103 -0.065000
v 2.208663 0.376838 -0.065000
v 2.176419 0.348899 -0.065000
v 2.176419 0.601102 -0.065000
v 2.208663 0.573162 -0.065000
v 2.231730 0.537270 -0.065000
v 2.095378 0.624897 -0.065000
v 1.982093 0.376838 -0.065000
v 2.014338 0.348899 -0.065000
v 2.137609 0.618825 -0.065000
v 2.243750 0.453667 -0.065000
v 2.243750 0.496333 -0.065000
v 2.231730 0.412731 -0.065000
v 2.014338 0.601102 -0.065000
v 2.053148 0.618825 -0.065000
v 1.959027 0.537270 -0.065000
v 1.947007 0.453668 -0.065000
v 1.959027 0.412731 -0.065000
v 1.982094 0.573162 -0.065000
v 1.947007 0.496333 -0.065000
v 2.240919 0.408534 -0.060000
v 2.240919 0.408534 -0.030000
v 2.216298 0.370222 -0.030000
v 2.216298 0.370222 -0.060000
v 2.181881 0.340399 -0.030000
v 2.181881 0.340399 -0.060000
v 2.140455 0.321481 -0.030000
v 2.140455 0.321481 -0.060000
v 2.095378 0.315000 -0.030000
v 2.095378 0.315000 -0.060000
v 2.050301 0.321481 -0.030000
v 2.050301 0.321481 -0.060000
v 2.008876 0.340400 -0.030000
v 2.008876 0.340400 -0.060000
v 1.974458 0.370222 -0.030000
v 1.974458 0.370222 -0.060000
v 1.949837 0.408534 -0.030000
v 1.949837 0.408534 -0.060000
v 1.865378 1.320000 0.080000
v 2.325378 1.320000 0.080000
v 2.365378 1.320000 0.080000
v 1.949837 0.541467 -0.060000
v 1.949837 0.541467 -0.030000
v 1.974458 0.579778 -0.030000
v 1.974458 0.579778 -0.060000
v 2.008876 0.609601 -0.030000
v 2.008876 0.609601 -0.060000
v 2.050301 0.628519 -0.030000
v 2.050301 0.628519 -0.060000
v 2.095378 0.635000 -0.030000
v 2.095378 0.635000 -0.060000
v 2.140455 0.628519 -0.030000
v 2.140455 0.628519 -0.060000
v 2.181881 0.609601 -0.030000
v 2.181881 0.609601 -0.060000
v 2.216298 0.579778 -0.030000
v 2.216298 0.579778 -0.060000
v 2.240919 0.541466 -0.030000
v 2.240919 0.541466 -0.060000
v 1.209011 0.040000 0.040000
v 1.825378 0.040000 0.040000
v 1.825378 0.375123 0.040000
v 2.991716 1.320000 -0.060000
v 2.991716 1.320000 -0.040000
v 2.365378 1.320000 -0.040000
v 2.365378 1.320000 -0.080000
v 3.015376 1.320000 -0.080000
v 3.015376 1.320000 -0.060000
v 1.199040 1.320000 0.040000
v 1.825378 0.587434 0.040000
v 1.825378 1.320000 0.040000
v 2.016489 -0.080000 0.030000
v 2.174267 -0.080000 0.030000
v 2.184267 -0.000000 0.040000
v 2.006489 -0.000000 0.040000
v 2.016489 -0.080000 -0.030000
v 2.006489 -0.000000 0.040000
v 2.006489 0.000000 -0.040000
v 1.394267 -0.080000 -0.030000
v 1.236489 -0.080000 -0.030000
v 1.226489 0.000000 -0.040000
v 1.404267 0.000000 -0.040000
v 1.394267 -0.080000 0.030000
v 1.404267 0.000000 -0.040000
v 1.404267 -0.000000 0.040000
v 1.236489 -0.080000 0.030000
v 1.404267 -0.000000 0.040000
v 1.226489 -0.000000 0.040000
v 1.226489 -0.000000 0.040000
v 1.226489 0.000000 -0.040000
v 1.784267 -0.080000 -0.030000
v 1.626489 -0.080000 -0.030000
v 1.616489 0.000000 -0.040000
v 1.794267 0.000000 -0.040000
v 1.784267 -0.080000 0.030000
v 1.794267 0.000000 -0.040000
v 1.794267 -0.000000 0.040000
v 1.626489 -0.080000 0.030000
v 1.794267 -0.000000 0.040000
v 1.616489 -0.000000 0.040000
v 1.616489 -0.000000 0.040000
v 1.616489 0.000000 -0.040000
v 2.564267 -0.080000 -0.030000
v 2.406489 -0.080000 -0.030000
v 2.396489 0.000000 -0.040000
v 2.574267 0.000000 -0.040000
v 2.564267 -0.080000 0.030000
v 2.574267 0.000000 -0.040000
v 2.574267 -0.000000 0.040000
v 2.406489 -0.080000 0.030000
v 2.574267 -0.000000 0.040000
v 2.396489 -0.000000 0.040000
v 2.396489 -0.000000 0.040000
v 2.396489 0.000000 -0.040000
v 2.174267 -0.080000 -0.030000
v 2.184267 0.000000 -0.040000
v 2.184267 -0.000000 0.040000
v 1.175380 0.550000 0.080000
v 1.175380 1.320000 0.080000
v 1.135380 1.360000 0.080000
v 1.175380 0.520000 0.080000
v 1.175381 0.430000 0.080000
v 1.175381 0.400000 0.080000
v 1.175381 0.040000 0.080000
v 1.135381 -0.000000 0.080000
v 1.865378 0.400000 0.040000
v 1.865378 0.040000 0.040000
v 2.325378 0.040000 0.040000
v 2.325378 0.400000 0.040000
v 2.325378 0.550000 0.040000
v 2.325378 1.320000 0.040000
v 1.865378 1.320000 0.040000
v 1.865378 0.550000 0.040000
v 2.325378 0.040000 0.040000
v 1.865378 0.040000 0.040000
v 1.865378 0.040000 0.080000
v 2.325378 0.040000 0.080000
v 2.325378 0.400000 0.040000
v 2.325378 0.400000 0.080000
v 1.865378 0.400000 0.040000
v 2.325378 0.400000 0.040000
v 2.325378 0.400000 0.080000
v 1.865378 0.400000 0.080000
v 1.865378 0.040000 0.040000
v 1.865378 0.040000 0.080000
v 1.865378 1.320000 0.040000
v 2.325378 1.320000 0.040000
v 2.325378 1.320000 0.080000
v 1.865378 1.320000 0.080000
v 1.865378 0.550000 0.040000
v 1.865378 0.550000 0.080000
v 2.325378 0.550000 0.040000
v 1.865378 0.550000 0.040000
v 1.865378 0.550000 0.080000
v 2.325378 0.550000 0.080000
v 2.325378 1.320000 0.040000
v 2.325378 1.320000 0.080000
v 3.015379 0.040000 0.080000
v 3.015379 0.400000 0.080000
v 3.015379 0.400000 0.040000
v 3.015379 0.064877 0.060000
v 3.015379 0.040000 0.060000
v 3.015379 0.064877 0.040000
v 1.175381 0.040000 0.080000
v 1.825378 0.040000 0.080000
v 1.825378 0.040000 0.040000
v 1.209011 0.040000 0.060000
v 1.175381 0.040000 0.060000
v 1.209011 0.040000 0.040000
v 2.398708 0.400000 0.060000
v 2.398708 0.400000 0.040000
v 2.365378 0.400000 0.080000
v 2.365378 0.400000 0.060000
v 2.981749 0.040000 0.040000
v 2.365378 0.375123 0.040000
v 2.365378 0.040000 0.040000
v 2.365378 0.375123 0.060000
v 2.365378 0.400000 0.060000
v 2.365378 0.400000 0.080000
v 2.365378 0.040000 0.040000
v 2.365378 0.375123 0.040000
v 2.365378 0.040000 0.080000
v 2.981749 0.040000 0.060000
v 2.981749 0.040000 0.040000
v 3.015379 0.040000 0.080000
v 3.015379 0.040000 0.060000
v 3.055379 0.000000 0.080000
v 3.015379 0.040000 0.080000
v 1.135381 -0.000000 0.080000
v 1.825378 0.040000 0.080000
v 1.175381 0.040000 0.080000
v 2.325378 0.040000 0.080000
v 2.365378 0.040000 0.080000
v 1.865378 0.040000 0.080000
v 1.175380 0.550000 0.040000
v 1.792048 0.550000 0.040000
v 1.175380 1.282566 0.040000
v 1.175381 0.064877 0.060000
v 1.175381 0.064877 0.040000
v 1.175381 0.400000 0.040000
v 1.175381 0.400000 0.080000
v 1.175381 0.040000 0.080000
v 1.175381 0.040000 0.060000
v 1.175380 1.282566 0.060000
v 1.199040 1.320000 0.060000
v 1.175380 1.320000 0.060000
v 1.825378 0.587434 0.060000
v 1.792048 0.550000 0.060000
v 1.825378 0.550000 0.060000
v 1.175380 1.320000 0.080000
v 1.825378 1.320000 0.080000
v 1.175380 1.282566 0.060000
v 1.175380 1.320000 0.060000
v 1.175380 1.320000 0.080000
v 1.175380 0.550000 0.040000
v 1.175380 1.282566 0.040000
v 1.175380 0.550000 0.080000
v 1.792048 0.550000 0.060000
v 1.792048 0.550000 0.040000
v 1.825378 0.550000 0.080000
v 1.825378 0.550000 0.060000
v 3.015379 0.400000 0.040000
v 2.398708 0.400000 0.040000
v 3.015379 0.064877 0.040000
v 1.825378 0.587434 0.060000
v 1.825378 0.550000 0.060000
v 1.825378 0.550000 0.080000
v 1.825378 1.320000 0.040000
v 1.825378 0.587434 0.040000
v 1.825378 1.320000 0.080000
v 1.199040 1.320000 0.060000
v 1.199040 1.320000 0.040000
v 1.175380 1.320000 0.080000
v 1.175380 1.320000 0.060000
v 1.175381 0.400000 0.040000
v 1.175381 0.064877 0.040000
v 1.792048 0.400000 0.040000
v 2.991673 1.320000 0.060000
v 3.015379 1.320000 0.060000
v 3.015379 1.320000 0.080000
v 2.365378 1.320000 0.040000
v 2.991673 1.320000 0.040000
v 2.365378 1.320000 0.080000
v 2.365378 0.587253 0.060000
v 2.365378 0.587253 0.040000
v 2.365378 0.550000 0.080000
v 2.365378 0.550000 0.060000
v 2.365378 0.587253 0.040000
v 2.991673 1.320000 0.040000
v 2.365378 1.320000 0.040000
v 2.389084 0.550000 0.060000
v 2.365378 0.550000 0.060000
v 2.365378 0.550000 0.080000
v 3.015379 0.550000 0.040000
v 2.389084 0.550000 0.040000
v 3.015379 0.550000 0.080000
v 1.947007 0.453667 0.065000
v 1.959027 0.412731 0.065000
v 1.982093 0.376838 0.065000
v 1.959027 0.537270 0.065000
v 1.947007 0.496333 0.065000
v 2.014338 0.601102 0.065000
v 1.982093 0.573162 0.065000
v 2.095378 0.624897 0.065000
v 2.208663 0.376838 0.065000
v 2.137609 0.331175 0.065000
v 2.176419 0.348899 0.065000
v 2.053147 0.618825 0.065000
v 2.053147 0.331175 0.065000
v 2.014338 0.348899 0.065000
v 2.095378 0.325103 0.065000
v 2.176419 0.601102 0.065000
v 2.137609 0.618825 0.065000
v 2.231729 0.537270 0.065000
v 2.208663 0.573162 0.065000
v 2.243749 0.453668 0.065000
v 2.243749 0.496333 0.065000
v 2.231729 0.412731 0.065000
v 3.015376 0.550000 -0.080000
v 3.015376 1.320000 -0.080000
v 3.055378 1.360000 -0.080000
v 3.015376 0.520000 -0.080000
v 3.015376 0.430000 -0.080000
v 3.015376 0.400000 -0.080000
v 3.015376 0.040000 -0.080000
v 3.055378 -0.000000 -0.080000
v 2.365378 0.040000 -0.080000
v 3.015376 0.040000 -0.080000
v 3.055378 -0.000000 -0.080000
v 1.865378 0.040000 -0.080000
v 1.175377 0.040000 -0.080000
v 1.135379 0.000000 -0.080000
v 2.325378 0.400000 -0.040000
v 2.325378 0.040000 -0.040000
v 1.865378 0.040000 -0.040000
v 1.865378 0.400000 -0.040000
v 1.865378 0.550000 -0.040000
v 1.865378 1.320000 -0.040000
v 2.325378 1.320000 -0.040000
v 2.325378 0.550000 -0.040000
v 1.825378 0.400000 -0.080000
v 1.865378 0.400000 -0.080000
v 1.865378 0.040000 -0.080000
v 1.825378 0.040000 -0.080000
v 1.825378 1.320000 -0.080000
v 1.865378 1.320000 -0.080000
v 1.865378 0.550000 -0.080000
v 1.825378 0.550000 -0.080000
v 1.175377 0.520000 -0.060000
v 3.015376 0.520000 -0.060000
v 3.015376 0.430000 -0.060000
v 1.175377 0.430000 -0.060000
v 2.365378 0.040000 -0.080000
v 2.325378 0.040000 -0.080000
v 2.325378 0.400000 -0.080000
v 2.365378 0.400000 -0.080000
v 2.365378 0.550000 -0.080000
v 2.325378 0.550000 -0.080000
v 2.325378 1.320000 -0.080000
v 2.365378 1.320000 -0.080000
v 1.792048 0.400000 -0.060000
v 1.792048 0.400000 -0.040000
v 1.175377 0.400000 -0.040000
v 1.175377 0.400000 -0.080000
v 1.825378 0.400000 -0.080000
v 1.825378 0.400000 -0.060000
v 3.015379 0.550000 0.040000
v 3.015379 1.282747 0.040000
v 2.389084 0.550000 0.040000
v 1.209007 0.040000 -0.060000
v 1.209007 0.040000 -0.040000
v 1.825378 0.040000 -0.040000
v 1.825378 0.040000 -0.080000
v 1.175377 0.040000 -0.080000
v 1.175377 0.040000 -0.060000
v 2.991673 1.320000 0.060000
v 3.015379 1.282747 0.060000
v 3.015379 1.320000 0.060000
v 2.365378 0.587253 0.060000
v 2.389084 0.550000 0.060000
v 2.365378 0.550000 0.060000
v 2.398708 0.550000 -0.060000
v 2.398708 0.550000 -0.040000
v 3.015376 0.550000 -0.040000
v 3.015376 0.550000 -0.080000
v 2.365378 0.550000 -0.080000
v 2.365378 0.550000 -0.060000
v 2.325378 1.320000 -0.080000
v 1.865378 1.320000 -0.080000
v 1.825378 1.320000 -0.080000
v 1.825378 0.587253 -0.060000
v 1.825378 0.587253 -0.040000
v 1.825378 1.320000 -0.040000
v 1.825378 1.320000 -0.080000
v 1.825378 0.550000 -0.080000
v 1.825378 0.550000 -0.060000
v 3.015376 1.320000 -0.080000
v 2.365378 1.320000 -0.080000
v 1.175377 0.040000 -0.080000
v 1.175377 0.064877 -0.060000
v 1.175377 0.040000 -0.060000
v 1.175377 0.064877 -0.040000
v 1.825378 0.400000 -0.080000
v 1.825378 0.375123 -0.060000
v 1.825378 0.400000 -0.060000
v 1.825378 0.375123 -0.040000
v 3.015376 0.040000 -0.080000
v 2.365378 0.040000 -0.080000
v 2.365378 0.040000 -0.040000
v 2.981745 0.040000 -0.060000
v 3.015376 0.040000 -0.060000
v 2.981745 0.040000 -0.040000
v 2.365378 0.400000 -0.080000
v 3.015376 0.400000 -0.080000
v 3.015376 0.400000 -0.040000
v 2.398708 0.400000 -0.060000
v 2.365378 0.400000 -0.060000
v 2.398708 0.400000 -0.040000
v 3.015376 1.320000 -0.080000
v 3.015376 1.282566 -0.060000
v 3.015376 1.320000 -0.060000
v 3.015376 1.282566 -0.040000
v 2.365378 0.550000 -0.080000
v 2.365378 0.587434 -0.060000
v 2.365378 0.550000 -0.060000
v 2.365378 0.587434 -0.040000
v 1.175377 1.320000 -0.080000
v 1.199083 1.320000 -0.060000
v 1.175377 1.320000 -0.060000
v 1.199083 1.320000 -0.040000
v 3.015379 0.400000 0.080000
v 3.015379 0.040000 0.080000
v 3.055379 0.000000 0.080000
v 3.015379 0.430000 0.080000
v 3.015379 0.520000 0.080000
v 3.015379 0.550000 0.080000
v 3.055379 1.360000 0.080000
v 3.015379 1.320000 0.080000
v 1.792048 0.400000 0.060000
v 1.825378 0.400000 0.060000
v 1.825378 0.400000 0.080000
v 1.792048 0.400000 0.040000
v 2.325378 0.040000 -0.080000
v 3.015379 1.320000 0.080000
v 3.055379 1.360000 0.080000
v 1.135380 1.360000 0.080000
v 2.325378 0.040000 0.080000
v 2.365378 0.040000 0.080000
v 2.365378 0.400000 0.080000
v 2.325378 0.400000 0.080000
v 2.365378 1.320000 0.080000
v 2.325378 1.320000 0.080000
v 2.325378 0.550000 0.080000
v 2.365378 0.550000 0.080000
v 3.015379 0.520000 0.060000
v 1.175380 0.520000 0.060000
v 1.175381 0.430000 0.060000
v 3.015379 0.430000 0.060000
v 1.825378 0.040000 0.080000
v 1.865378 0.040000 0.080000
v 1.865378 0.400000 0.080000
v 1.825378 0.400000 0.080000
v 1.825378 0.550000 0.080000
v 1.865378 0.550000 0.080000
v 1.865378 1.320000 0.080000
v 1.825378 1.320000 0.080000
v 1.175381 0.064877 0.060000
v 1.792048 0.400000 0.060000
v 1.792048 0.400000 0.040000
v 1.175381 0.064877 0.040000
v 2.991673 1.320000 0.040000
v 2.365378 0.587253 0.040000
v 2.365378 0.587253 0.060000
v 2.991673 1.320000 0.060000
v 2.389084 0.550000 0.040000
v 3.015379 1.282747 0.040000
v 3.015379 1.282747 0.060000
v 2.389084 0.550000 0.060000
v 3.015379 0.430000 0.080000
v 3.015379 0.520000 0.080000
v 1.175381 0.430000 0.080000
v 3.015379 0.430000 0.080000
v 1.175380 0.520000 0.080000
v 1.175381 0.430000 0.080000
v 3.015379 0.520000 0.080000
v 1.175380 0.520000 0.080000
v 1.865378 0.040000 -0.040000
v 2.325378 0.040000 -0.040000
v 2.325378 0.040000 -0.080000
v 1.865378 0.040000 -0.080000
v 1.865378 0.400000 -0.040000
v 1.865378 0.400000 -0.080000
v 2.325378 0.400000 -0.040000
v 1.865378 0.400000 -0.040000
v 1.865378 0.400000 -0.080000
v 2.325378 0.400000 -0.080000
v 2.325378 0.040000 -0.040000
v 2.325378 0.040000 -0.080000
v 2.325378 1.320000 -0.040000
v 1.865378 1.320000 -0.040000
v 1.865378 1.320000 -0.080000
v 2.325378 1.320000 -0.080000
v 2.325378 0.550000 -0.040000
v 2.325378 0.550000 -0.080000
v 1.865378 0.550000 -0.040000
v 2.325378 0.550000 -0.040000
v 2.325378 0.550000 -0.080000
v 1.865378 0.550000 -0.080000
v 1.865378 1.320000 -0.040000
v 1.865378 1.320000 -0.080000
v 1.175377 0.430000 -0.080000
v 1.175377 0.520000 -0.080000
v 3.015376 0.430000 -0.080000
v 1.175377 0.430000 -0.080000
v 3.015376 0.520000 -0.080000
v 3.015376 0.430000 -0.080000
v 1.175377 0.520000 -0.080000
v 3.015376 0.520000 -0.080000
v 1.135379 0.000000 -0.080000
v 3.055378 -0.000000 -0.080000
v 3.055379 0.000000 0.080000
v 1.135381 -0.000000 0.080000
v 3.055378 1.360000 -0.080000
v 3.055379 1.360000 0.080000
v 3.055379 0.000000 0.080000
v 3.055378 -0.000000 -0.080000
v 1.135380 1.360000 0.080000
v 1.135379 1.360000 -0.080000
v 1.135379 0.000000 -0.080000
v 1.135381 -0.000000 0.080000
v 2.796489 -0.080000 0.030000
v 2.796489 -0.080000 -0.030000
v 2.954267 -0.080000 -0.030000
v 2.954267 -0.080000 0.030000
v 2.964267 0.000000 -0.040000
v 2.964267 -0.000000 0.040000
v 2.964267 -0.000000 0.040000
v 2.786489 -0.000000 0.040000
v 2.786489 -0.000000 0.040000
v 2.786489 0.000000 -0.040000
v 2.786489 0.000000 -0.040000
v 2.964267 0.000000 -0.040000
v 2.006489 0.000000 -0.040000
v 2.184267 0.000000 -0.040000
v 3.015379 1.282747 0.060000
v 3.015379 1.282747 0.040000
v 3.015379 1.320000 0.080000
v 3.015379 1.320000 0.060000
v 1.825378 0.040000 -0.080000
v 2.365378 0.375123 0.040000
v 2.981749 0.040000 0.040000
v 2.981749 0.040000 0.060000
v 2.365378 0.375123 0.060000
v 1.209011 0.040000 0.040000
v 1.825378 0.375123 0.040000
v 1.825378 0.375123 0.060000
v 1.209011 0.040000 0.060000
v 1.825378 0.587434 0.040000
v 1.199040 1.320000 0.040000
v 1.199040 1.320000 0.060000
v 1.825378 0.587434 0.060000
v 1.175380 1.282566 0.040000
v 1.792048 0.550000 0.040000
v 1.792048 0.550000 0.060000
v 1.175380 1.282566 0.060000
v 3.015379 0.064877 0.040000
v 2.398708 0.400000 0.040000
v 2.398708 0.400000 0.060000
v 3.015379 0.064877 0.060000
v 1.825378 0.550000 -0.080000
v 1.175377 0.550000 -0.080000
v 1.175377 0.550000 -0.040000
v 1.801672 0.550000 -0.060000
v 1.825378 0.550000 -0.060000
v 1.801672 0.550000 -0.040000
v 1.175377 1.282747 -0.060000
v 1.175377 1.282747 -0.040000
v 1.175377 1.320000 -0.080000
v 1.175377 1.320000 -0.060000
v 1.209007 0.040000 -0.040000
v 1.825378 0.375123 -0.040000
v 1.825378 0.040000 -0.040000
v 1.825378 0.375123 -0.040000
v 1.209007 0.040000 -0.040000
v 1.209007 0.040000 -0.060000
v 1.825378 0.375123 -0.060000
v 2.981745 0.040000 -0.040000
v 2.365378 0.375123 -0.040000
v 2.365378 0.375123 -0.060000
v 2.981745 0.040000 -0.060000
v 2.365378 0.587434 -0.040000
v 2.991716 1.320000 -0.040000
v 2.991716 1.320000 -0.060000
v 2.365378 0.587434 -0.060000
v 2.398708 0.550000 -0.060000
v 3.015376 1.282566 -0.060000
v 3.015376 1.282566 -0.040000
v 2.398708 0.550000 -0.040000
v 1.825378 0.375123 0.060000
v 1.825378 0.375123 0.040000
v 1.825378 0.400000 0.080000
v 1.825378 0.400000 0.060000
v 2.981745 0.040000 -0.040000
v 2.365378 0.040000 -0.040000
v 2.365378 0.375123 -0.040000
v 1.825378 0.550000 0.080000
v 1.175380 0.550000 0.080000
v 1.175380 0.520000 0.080000
v 1.865378 0.550000 0.080000
v 2.325378 0.550000 0.080000
v 2.365378 0.550000 0.080000
v 3.015379 0.550000 0.080000
v 3.015379 0.520000 0.080000
v 2.365378 0.400000 0.080000
v 3.015379 0.400000 0.080000
v 3.015379 0.430000 0.080000
v 2.325378 0.400000 0.080000
v 1.175381 0.430000 0.080000
v 1.865378 0.400000 0.080000
v 1.825378 0.400000 0.080000
v 1.175381 0.400000 0.080000
v 1.175377 0.400000 -0.080000
v 1.175377 0.040000 -0.080000
v 1.135379 0.000000 -0.080000
v 1.175377 0.430000 -0.080000
v 1.175377 0.520000 -0.080000
v 1.175377 0.550000 -0.080000
v 1.135379 1.360000 -0.080000
v 1.175377 1.320000 -0.080000
v 2.991716 1.320000 -0.040000
v 2.365378 0.587434 -0.040000
v 2.365378 1.320000 -0.040000
v 2.365378 0.550000 -0.080000
v 3.015376 0.550000 -0.080000
v 3.015376 0.520000 -0.080000
v 2.325378 0.550000 -0.080000
v 1.865378 0.550000 -0.080000
v 1.825378 0.550000 -0.080000
v 1.175377 0.550000 -0.080000
v 1.175377 0.520000 -0.080000
v 1.825378 0.400000 -0.080000
v 1.175377 0.400000 -0.080000
v 1.175377 0.430000 -0.080000
v 1.865378 0.400000 -0.080000
v 3.015376 0.430000 -0.080000
v 2.325378 0.400000 -0.080000
v 2.365378 0.400000 -0.080000
v 3.015376 0.400000 -0.080000
v 1.175377 1.320000 -0.080000
v 1.135379 1.360000 -0.080000
v 3.055378 1.360000 -0.080000
v 1.825378 0.550000 -0.060000
v 1.801672 0.550000 -0.060000
v 1.825378 0.587253 -0.060000
v 1.175377 1.282747 -0.060000
v 1.199083 1.320000 -0.060000
v 1.175377 1.320000 -0.060000
v 2.365378 0.375123 -0.060000
v 2.365378 0.375123 -0.040000
v 2.365378 0.400000 -0.080000
v 2.365378 0.400000 -0.060000
v 3.015376 0.550000 -0.040000
v 2.398708 0.550000 -0.040000
v 3.015376 1.282566 -0.040000
v 3.015376 0.064877 -0.060000
v 3.015376 0.064877 -0.040000
v 3.015376 0.040000 -0.080000
v 3.015376 0.040000 -0.060000
v 3.015376 1.282566 -0.060000
v 2.991716 1.320000 -0.060000
v 3.015376 1.320000 -0.060000
v 2.365378 0.587434 -0.060000
v 2.398708 0.550000 -0.060000
v 2.365378 0.550000 -0.060000
v 1.175377 0.400000 -0.040000
v 1.792048 0.400000 -0.040000
v 1.175377 0.064877 -0.040000
v 2.240919 0.541467 0.060000
v 2.240919 0.541467 0.030000
v 2.216298 0.579778 0.030000
v 2.216298 0.579778 0.060000
v 2.181880 0.609601 0.030000
v 2.181880 0.609601 0.060000
v 2.140455 0.628519 0.030000
v 2.140455 0.628519 0.060000
v 2.095378 0.635000 0.030000
v 2.095378 0.635000 0.060000
v 2.050301 0.628519 0.030000
v 2.050301 0.628519 0.060000
v 2.008875 0.609601 0.030000
v 2.008875 0.609601 0.060000
v 1.974458 0.579778 0.030000
v 1.974458 0.579778 0.060000
v 1.949837 0.541466 0.030000
v 1.949837 0.541466 0.060000
v 3.015376 0.400000 -0.040000
v 3.015376 0.064877 -0.040000
v 2.398708 0.400000 -0.040000
v 2.240919 0.408534 0.030000
v 2.240919 0.408534 0.060000
v 2.216298 0.370222 0.060000
v 2.216298 0.370222 0.030000
v 2.181881 0.340400 0.060000
v 2.181881 0.340400 0.030000
v 2.140455 0.321481 0.060000
v 2.140455 0.321481 0.030000
v 2.095378 0.315000 0.060000
v 2.095378 0.315000 0.030000
v 2.050301 0.321481 0.060000
v 2.050301 0.321481 0.030000
v 2.008875 0.340399 0.060000
v 2.008875 0.340399 0.030000
v 1.974458 0.370222 0.060000
v 1.974458 0.370222 0.030000
v 1.949837 0.408534 0.060000
v 1.949837 0.408534 0.030000
v 2.981745 0.040000 -0.060000
v 3.015376 0.064877 -0.060000
v 3.015376 0.040000 -0.060000
v 2.365378 0.375123 -0.060000
v 2.398708 0.400000 -0.060000
v 2.365378 0.400000 -0.060000
v 1.949837 0.541467 -0.060000
v 1.974458 0.579778 -0.060000
v 1.937007 0.497770 -0.060000
v 1.937007 0.452230 -0.060000
v 1.949837 0.408534 -0.060000
v 1.974458 0.370222 -0.060000
v 2.008876 0.340400 -0.060000
v 2.050301 0.321481 -0.060000
v 2.095378 0.315000 -0.060000
v 2.140455 0.321481 -0.060000
v 2.181881 0.340399 -0.060000
v 2.216298 0.370222 -0.060000
v 2.240919 0.408534 -0.060000
v 2.253750 0.452230 -0.060000
v 2.253750 0.497770 -0.060000
v 2.240919 0.541466 -0.060000
v 2.216298 0.579778 -0.060000
v 2.181881 0.609601 -0.060000
v 2.140455 0.628519 -0.060000
v 2.095378 0.635000 -0.060000
v 2.050301 0.628519 -0.060000
v 2.008876 0.609601 -0.060000
v 1.825378 0.587253 -0.040000
v 1.199083 1.320000 -0.040000
v 1.825378 1.320000 -0.040000
v 2.008875 0.609601 0.060000
v 1.974458 0.579778 0.060000
v 2.050301 0.628519 0.060000
v 2.095378 0.635000 0.060000
v 2.140455 0.628519 0.060000
v 2.181880 0.609601 0.060000
v 2.216298 0.579778 0.060000
v 2.240919 0.541467 0.060000
v 2.253749 0.497770 0.060000
v 2.253749 0.452230 0.060000
v 2.240919 0.408534 0.060000
v 2.216298 0.370222 0.060000
v 2.181881 0.340400 0.060000
v 2.140455 0.321481 0.060000
v 2.095378 0.315000 0.060000
v 2.050301 0.321481 0.060000
v 2.008875 0.340399 0.060000
v 1.974458 0.370222 0.060000
v 1.949837 0.408534 0.060000
v 1.937007 0.452230 0.060000
v 1.937007 0.497770 0.060000
v 1.949837 0.541466 0.060000
v 3.015379 0.064877 0.060000
v 2.981749 0.040000 0.060000
v 3.015379 0.040000 0.060000
v 2.398708 0.400000 0.060000
v 2.365378 0.375123 0.060000
v 2.365378 0.400000 0.060000
v 1.175377 0.064877 -0.060000
v 1.209007 0.040000 -0.060000
v 1.175377 0.040000 -0.060000
v 1.792048 0.400000 -0.060000
v 1.825378 0.375123 -0.060000
v 1.825378 0.400000 -0.060000
v 1.209011 0.040000 0.060000
v 1.175381 0.064877 0.060000
v 1.175381 0.040000 0.060000
v 1.825378 0.375123 0.060000
v 1.792048 0.400000 0.060000
v 1.825378 0.400000 0.060000
v 2.954267 -0.080000 0.030000
v 2.954267 -0.080000 0.030000
v 2.954267 -0.080000 -0.030000
v 2.954267 -0.080000 -0.030000
v 2.796489 -0.080000 -0.030000
v 2.796489 -0.080000 -0.030000
v 1.135379 1.360000 -0.080000
v 1.175377 0.550000 -0.080000
v 3.015379 0.520000 0.060000
v 3.015379 0.520000 0.060000
v 1.825378 1.320000 -0.040000
v 2.325378 0.400000 -0.080000
v 1.175377 0.520000 -0.060000
v 1.175377 0.520000 -0.060000
v 1.825378 1.320000 -0.080000
v 1.825378 1.320000 -0.080000
v 1.825378 0.040000 -0.080000
v 2.325378 1.320000 -0.040000
v 1.825378 0.040000 -0.040000
v 1.865378 0.550000 -0.040000
v 3.015376 0.520000 -0.060000
v 3.015376 0.520000 -0.060000
v 1.175377 0.400000 -0.080000
v 3.015376 0.550000 -0.040000
v 1.865378 0.040000 -0.080000
v 1.865378 0.040000 -0.080000
v 3.015376 0.400000 -0.080000
v 3.055378 1.360000 -0.080000
v 2.016489 -0.080000 -0.030000
v 2.016489 -0.080000 -0.030000
v 2.325378 0.400000 -0.040000
v 3.015376 1.320000 -0.080000
v 2.365378 1.320000 -0.080000
v 1.865378 0.400000 0.080000
v 2.406489 -0.080000 -0.030000
v 2.406489 -0.080000 -0.030000
v 3.055379 1.360000 0.080000
v 1.865378 1.320000 0.080000
v 1.865378 1.320000 0.080000
v 1.865378 1.320000 0.080000
v 1.865378 0.040000 -0.040000
v 2.365378 1.320000 -0.040000
v 1.626489 -0.080000 -0.030000
v 1.626489 -0.080000 -0.030000
v 1.175377 0.550000 -0.040000
v 3.015379 0.040000 0.080000
v 3.015379 0.400000 0.080000
v 2.365378 1.320000 0.040000
v 1.175377 0.430000 -0.060000
v 1.175377 0.430000 -0.060000
v 2.365378 0.040000 -0.080000
v 2.365378 0.040000 -0.080000
v 1.175377 0.400000 -0.040000
v 2.325378 0.550000 0.080000
v 1.825378 0.040000 0.080000
v 1.825378 0.040000 0.080000
v 2.365378 1.320000 0.080000
v 2.365378 1.320000 0.080000
v 1.784267 -0.080000 -0.030000
v 1.784267 -0.080000 -0.030000
v 1.825378 1.320000 0.040000
v 3.015376 0.400000 -0.040000
v 2.016489 -0.080000 0.030000
v 2.016489 -0.080000 0.030000
v 3.015376 0.430000 -0.060000
v 3.015376 0.430000 -0.060000
v 1.784267 -0.080000 0.030000
v 1.784267 -0.080000 0.030000
v 1.865378 0.550000 -0.080000
v 1.865378 0.400000 0.040000
v 1.394267 -0.080000 0.030000
v 1.394267 -0.080000 0.030000
v 1.236489 -0.080000 0.030000
v 1.236489 -0.080000 0.030000
v 2.365378 0.040000 -0.040000
v 1.175380 0.550000 0.040000
v 1.626489 -0.080000 0.030000
v 1.626489 -0.080000 0.030000
v 3.015376 0.550000 -0.080000
v 2.564267 -0.080000 -0.030000
v 2.564267 -0.080000 -0.030000
v 1.394267 -0.080000 -0.030000
v 1.394267 -0.080000 -0.030000
v 1.825378 0.040000 0.040000
v 2.564267 -0.080000 0.030000
v 2.564267 -0.080000 0.030000
v 2.406489 -0.080000 0.030000
v 2.406489 -0.080000 0.030000
v 2.174267 -0.080000 0.030000
v 2.174267 -0.080000 0.030000
v 2.174267 -0.080000 -0.030000
v 2.174267 -0.080000 -0.030000
v 1.175380 0.520000 0.060000
v 1.175380 0.520000 0.060000
v 1.175380 0.550000 0.080000
v 1.135380 1.360000 0.080000
v 1.175381 0.400000 0.040000
v 2.325378 1.320000 -0.080000
v 2.325378 1.320000 -0.080000
v 2.325378 1.320000 -0.080000
v 2.325378 0.040000 0.040000
v 1.236489 -0.080000 -0.030000
v 1.236489 -0.080000 -0.030000
v 1.865378 1.320000 0.040000
v 2.325378 0.040000 0.080000
v 2.325378 0.040000 0.080000
v 2.325378 0.040000 0.080000
v 3.015379 0.550000 0.040000
v 3.015379 0.400000 0.040000
v 3.015379 0.430000 0.060000
v 3.015379 0.430000 0.060000
v 1.175381 0.430000 0.060000
v 1.175381 0.430000 0.060000
v 1.175381 0.400000 0.080000
v 2.796489 -0.080000 0.030000
v 2.796489 -0.080000 0.030000
v 2.325378 0.550000 0.040000
v 2.365378 0.040000 0.040000
v 2.365378 0.040000 0.080000
v 1.175380 1.320000 0.080000
v 1.825378 1.320000 0.080000
v 3.015379 0.550000 0.080000
vn -0.0000 -0.0000 -1.0000
vn -0.4775 0.8786 -0.0000
vn 0.4775 0.8786 -0.0000
vn 0.7602 0.6497 -0.0000
vn -0.7602 -0.6497 -0.0000
vn -0.0129 -0.0370 -0.9992
vn 0.0243 -0.1013 -0.9946
vn -0.0167 -0.3349 -0.9421
vn 0.0047 -0.0045 -1.0000
vn 0.1670 -0.2908 -0.9421
vn 0.0606 0.0847 -0.9946
vn 0.2641 0.2067 -0.9421
vn 0.0178 0.0071 -0.9998
vn 0.0003 0.0057 -1.0000
vn -0.0053 -0.0041 -1.0000
vn -0.1952 -0.2727 -0.9421
vn 0.1104 0.3167 -0.9421
vn 0.1023 -0.0200 -0.9946
vn 0.3339 0.0311 -0.9421
vn 0.2977 -0.1544 -0.9421
vn -0.0519 0.0904 -0.9946
vn -0.0783 0.3261 -0.9421
vn -0.0170 0.0088 -0.9998
vn -0.1038 -0.0097 -0.9946
vn -0.3116 -0.1239 -0.9421
vn -0.2422 0.2320 -0.9421
vn -0.3291 0.0642 -0.9421
vn 0.8413 -0.5406 -0.0000
vn 0.7862 -0.6180 -0.0000
vn 0.7236 -0.6903 -0.0000
vn 0.5803 -0.8144 -0.0000
vn 0.4998 -0.8662 -0.0000
vn 0.3273 -0.9449 -0.0000
vn 0.2355 -0.9719 -0.0000
vn 0.0478 -0.9989 -0.0000
vn -0.0478 -0.9989 -0.0000
vn -0.2355 -0.9719 -0.0000
vn -0.3273 -0.9449 -0.0000
vn -0.4998 -0.8662 -0.0000
vn -0.5803 -0.8144 -0.0000
vn -0.7236 -0.6903 -0.0000
vn -0.7862 -0.6180 -0.0000
vn -0.8413 -0.5406 -0.0000
vn -0.0000 -1.0000 -0.0000
vn -0.8413 0.5406 -0.0000
vn -0.7862 0.6180 -0.0000
vn -0.7236 0.6903 -0.0000
vn -0.5803 0.8144 -0.0000
vn -0.4998 0.8662 -0.0000
vn -0.3273 0.9449 -0.0000
vn -0.2355 0.9719 -0.0000
vn -0.0478 0.9989 -0.0000
vn 0.0478 0.9989 -0.0000
vn 0.2355 0.9719 -0.0000
vn 0.3273 0.9449 -0.0000
vn 0.4998 0.8662 -0.0000
vn 0.5803 0.8144 -0.0000
vn 0.7236 0.6903 -0.0000
vn 0.7862 0.6180 -0.0000
vn 0.8413 0.5406 -0.0000
vn -0.0000 -0.0000 1.0000
vn -0.0000 -0.1240 0.9923
vn -0.9923 -0.1240 -0.0000
vn -0.0000 -0.1240 -0.9923
vn 0.9923 -0.1240 -0.0000
vn -0.0000 1.0000 -0.0000
vn -1.0000 -0.0000 -0.0000
vn 1.0000 -0.0000 -0.0000
vn -0.0000 -0.9091 0.4166
vn -0.0000 -0.9545 -0.2983
vn -0.0000 -0.2983 -0.9545
vn -0.1023 -0.0200 0.9946
vn -0.2977 -0.1544 0.9421
vn -0.0047 -0.0045 1.0000
vn -0.0178 0.0071 0.9998
vn -0.3339 0.0311 0.9421
vn -0.0606 0.0847 0.9946
vn -0.2641 0.2067 0.9421
vn -0.0003 0.0057 1.0000
vn 0.0053 -0.0042 1.0000
vn 0.0129 -0.0370 0.9992
vn 0.1952 -0.2727 0.9421
vn -0.1104 0.3167 0.9421
vn -0.0243 -0.1013 0.9946
vn -0.1670 -0.2908 0.9421
vn 0.0167 -0.3349 0.9421
vn 0.0519 0.0904 0.9946
vn 0.0783 0.3261 0.9421
vn 0.0170 0.0088 0.9998
vn 0.2422 0.2320 0.9421
vn 0.1038 -0.0097 0.9946
vn 0.3291 0.0642 0.9421
vn 0.3116 -0.1239 0.9421
vn -0.0000 -0.7071 0.7071
vn -0.0000 -0.9936 0.1129
vn -0.7602 0.6497 -0.0000
vn 0.7602 -0.6497 -0.0000
vn -0.4777 -0.8785 -0.0000
vn 0.4777 -0.8785 -0.0000
vn 0.7601 0.6498 -0.0000
vn -0.7650 -0.6440 -0.0000
vn -0.7601 0.6498 -0.0000
vn 0.7650 -0.6440 -0.0000
vn -0.4118 0.1657 -0.8961
vn -0.3485 0.2750 -0.8961
vn -0.4418 0.0430 -0.8961
vn -0.4361 -0.0832 -0.8961
vn -0.3949 -0.2027 -0.8961
vn -0.3218 -0.3058 -0.8961
vn -0.2227 -0.3841 -0.8961
vn -0.1054 -0.4312 -0.8961
vn 0.0203 -0.4435 -0.8961
vn 0.1444 -0.4198 -0.8961
vn 0.2569 -0.3621 -0.8961
vn 0.3485 -0.2750 -0.8961
vn 0.4118 -0.1657 -0.8961
vn 0.4418 -0.0430 -0.8961
vn 0.4361 0.0832 -0.8961
vn 0.3950 0.2027 -0.8961
vn 0.3218 0.3058 -0.8961
vn 0.2227 0.3841 -0.8961
vn 0.1054 0.4312 -0.8961
vn -0.0203 0.4435 -0.8961
vn -0.1444 0.4198 -0.8961
vn -0.2569 0.3621 -0.8961
vn -0.2227 0.3841 0.8961
vn -0.3218 0.3058 0.8961
vn -0.1054 0.4312 0.8961
vn 0.0203 0.4435 0.8961
vn 0.1444 0.4198 0.8961
vn 0.2569 0.3621 0.8961
vn 0.3485 0.2750 0.8961
vn 0.4118 0.1657 0.8961
vn 0.4418 0.0430 0.8961
vn 0.4361 -0.0832 0.8961
vn 0.3949 -0.2027 0.8961
vn 0.3218 -0.3058 0.8961
vn 0.2227 -0.3841 0.8961
vn 0.1054 -0.4312 0.8961
vn -0.0203 -0.4435 0.8961
vn -0.1444 -0.4198 0.8961
vn -0.2569 -0.3621 0.8961
vn -0.3485 -0.2750 0.8961
vn -0.4118 -0.1657 0.8961
vn -0.4418 -0.0430 0.8961
vn -0.4361 0.0832 0.8961
vn -0.3950 0.2027 0.8961
vt 0.028489 1.592374
vt 0.028489 1.937655
vt 0.248213 1.592374
vt 0.823320 1.997082
vt 0.823323 1.674638
vt 0.837449 1.674638
vt 0.837446 1.997082
vt 0.853215 1.521457
vt 0.853210 1.996271
vt 0.840248 1.996271
vt 0.840253 1.521457
vt 0.602659 1.123269
vt 0.641883 1.123268
vt 0.622271 1.120449
vt 0.674880 1.144474
vt 0.659906 1.131499
vt 0.659906 1.248620
vt 0.674880 1.235645
vt 0.685592 1.218978
vt 0.622271 1.259671
vt 0.569662 1.144474
vt 0.584636 1.131499
vt 0.641883 1.256851
vt 0.691174 1.180153
vt 0.691174 1.199967
vt 0.685592 1.161142
vt 0.584636 1.248620
vt 0.602659 1.256851
vt 0.558950 1.218978
vt 0.553368 1.180153
vt 0.558950 1.161142
vt 0.569662 1.235645
vt 0.553368 1.199967
vt 0.837769 1.671950
vt 0.823602 1.671950
vt 0.823602 1.653858
vt 0.837769 1.653858
vt 0.823602 1.637605
vt 0.837769 1.637605
vt 0.823602 1.618042
vt 0.837769 1.618043
vt 0.823602 1.596755
vt 0.837770 1.596755
vt 0.823603 1.575468
vt 0.837770 1.575468
vt 0.823603 1.555906
vt 0.837770 1.555906
vt 0.823603 1.539652
vt 0.837770 1.539653
vt 0.823603 1.521561
vt 0.837770 1.521561
vt 0.509687 1.976766
vt 0.313285 1.976764
vt 0.296206 1.976764
vt 0.770248 1.325934
vt 0.556569 1.325934
vt 0.556569 1.482844
vt 0.936935 1.050676
vt 0.936935 1.065796
vt 0.584399 1.065796
vt 0.584399 1.035557
vt 0.954821 1.035557
vt 0.954821 1.050676
vt 0.774699 1.965784
vt 0.556898 1.623643
vt 0.556898 1.965784
vt 0.815785 1.231024
vt 0.815785 1.170422
vt 0.784818 1.166581
vt 0.784818 1.234865
vt 0.838831 1.231025
vt 0.811944 1.261992
vt 0.842672 1.261992
vt 0.751424 1.170884
vt 0.751423 1.231486
vt 0.782390 1.235327
vt 0.782391 1.167043
vt 0.728378 1.170884
vt 0.755265 1.139917
vt 0.724537 1.139916
vt 0.728377 1.231486
vt 0.697411 1.167042
vt 0.697410 1.235327
vt 0.724536 1.262453
vt 0.755264 1.262453
vt 0.904085 1.231313
vt 0.904086 1.170710
vt 0.873119 1.166869
vt 0.873118 1.235153
vt 0.927131 1.231313
vt 0.900244 1.262280
vt 0.930972 1.262280
vt 0.927132 1.170710
vt 0.958098 1.235154
vt 0.958099 1.166870
vt 0.930973 1.139743
vt 0.900245 1.139743
vt 0.838831 1.170422
vt 0.842672 1.139455
vt 0.811944 1.139455
vt 0.800919 1.582318
vt 0.800919 1.976856
vt 0.821415 1.997352
vt 0.800919 1.566946
vt 0.800919 1.520831
vt 0.800919 1.505459
vt 0.800919 1.321000
vt 0.821415 1.300504
vt 0.523905 1.501195
vt 0.523905 1.325264
vt 0.299104 1.325264
vt 0.299104 1.501195
vt 0.523795 1.591623
vt 0.523795 1.967551
vt 0.299214 1.967551
vt 0.299214 1.591623
vt 0.886306 1.637649
vt 0.886304 1.997062
vt 0.855051 1.997062
vt 0.855052 1.637649
vt 0.886307 1.356369
vt 0.855053 1.356369
vt 0.338803 1.266114
vt 0.005691 1.266114
vt 0.005691 1.295080
vt 0.338803 1.295081
vt 0.896404 1.266114
vt 0.896404 1.295081
vt 0.598049 1.098417
vt 0.345827 1.098416
vt 0.345827 1.126440
vt 0.580620 1.112429
vt 0.598049 1.112429
vt 0.580620 1.126441
vt 0.597588 1.095616
vt 0.254286 1.095615
vt 0.254286 1.067590
vt 0.574026 1.081604
vt 0.597588 1.081604
vt 0.574026 1.067591
vt 0.025877 1.112427
vt 0.025877 1.126439
vt 0.002525 1.098415
vt 0.002525 1.112427
vt 0.055448 1.326921
vt 0.265096 1.480870
vt 0.265096 1.326921
vt 0.019494 1.081602
vt 0.002064 1.081602
vt 0.002064 1.095614
vt 0.019494 1.067589
vt 0.001608 1.300456
vt 0.022066 1.320873
vt 0.821372 1.300462
vt 0.526770 1.320876
vt 0.800830 1.320878
vt 0.313289 1.320875
vt 0.296211 1.320875
vt 0.509691 1.320876
vt 0.792850 1.595261
vt 0.583064 1.595261
vt 0.792850 1.931788
vt 0.800919 1.957675
vt 0.788796 1.976856
vt 0.549849 1.601498
vt 0.566927 1.582318
vt 0.549849 1.582318
vt 0.801084 1.976768
vt 0.526765 1.976766
vt 0.925917 1.017420
vt 0.954216 1.017420
vt 0.954216 1.002301
vt 0.372125 1.032539
vt 0.925917 1.032539
vt 0.372125 1.002301
vt 0.026900 1.017420
vt 0.026900 1.032539
vt 0.001704 1.002301
vt 0.001704 1.017420
vt 0.030756 1.499100
vt 0.238749 1.499100
vt 0.030756 1.346466
vt 0.030607 1.050676
vt 0.002308 1.050676
vt 0.002308 1.035557
vt 0.030607 1.065796
vt 0.792469 1.499259
vt 0.792469 1.346148
vt 0.583826 1.499259
vt 0.266817 1.621341
vt 0.046923 1.966888
vt 0.266817 1.966888
vt 0.273160 1.505459
vt 0.293655 1.505459
vt 0.293655 1.321000
vt 0.273160 1.321000
vt 0.273160 1.976856
vt 0.293655 1.976856
vt 0.293655 1.582318
vt 0.273160 1.582318
vt 0.022090 1.566946
vt 0.022090 1.520831
vt 0.549849 1.321000
vt 0.529354 1.321000
vt 0.529354 1.505459
vt 0.549849 1.505459
vt 0.529354 1.582318
vt 0.529354 1.976856
vt 0.549849 1.976856
vt 0.034236 1.976856
vt 0.022090 1.957768
vt 0.022090 1.976856
vt 0.273160 1.601405
vt 0.261013 1.582318
vt 0.022090 1.505459
vt 0.022090 1.321000
vt 0.001594 1.300504
vt 0.022090 1.582318
vt 0.001594 1.997352
vt 0.021897 1.976762
vt 0.001603 1.997179
vt 0.821367 1.997184
vt 0.011842 1.520831
vt 0.011842 1.566946
vt 0.800919 1.510583
vt 0.022090 1.510583
vt 0.811167 1.566946
vt 0.811167 1.520831
vt 0.022090 1.577194
vt 0.800919 1.577194
vt 0.958213 1.997591
vt 0.958213 1.312889
vt 0.889743 1.312889
vt 0.889743 1.997591
vt 0.997616 1.683453
vt 0.960740 1.683453
vt 0.960740 1.996894
vt 0.997616 1.996894
vt 0.960740 1.314699
vt 0.997616 1.314699
vt 0.997616 1.001258
vt 0.960740 1.001258
vt 0.869798 1.234866
vt 0.869798 1.166581
vt 0.297355 1.566945
vt 0.022158 1.566945
vt 0.022158 1.581801
vt 0.314290 1.566945
vt 0.509045 1.566945
vt 0.525980 1.566945
vt 0.801178 1.566945
vt 0.801178 1.581801
vt 0.525775 1.522269
vt 0.800903 1.522269
vt 0.800903 1.506288
vt 0.508844 1.522269
vt 0.022081 1.506288
vt 0.314139 1.522269
vt 0.297208 1.522269
vt 0.022081 1.522269
vt 0.783687 1.321000
vt 0.800919 1.333747
vt 0.549849 1.492713
vt 0.566927 1.505459
vt 0.554683 1.220927
vt 0.566117 1.238718
vt 0.548725 1.200634
vt 0.548725 1.179486
vt 0.554683 1.159193
vt 0.566117 1.141402
vt 0.582100 1.127552
vt 0.601338 1.118767
vt 0.622271 1.115757
vt 0.643205 1.118767
vt 0.662442 1.127552
vt 0.678425 1.141402
vt 0.689859 1.159193
vt 0.695818 1.179486
vt 0.695818 1.200634
vt 0.689859 1.220926
vt 0.678425 1.238718
vt 0.662442 1.252567
vt 0.643205 1.261353
vt 0.622271 1.264363
vt 0.601338 1.261353
vt 0.582100 1.252567
vt 0.022090 1.333747
vt 0.039322 1.321000
vt 0.256082 1.505459
vt 0.273160 1.492713
s 0
usemtl qe_blastdoor
f 1/1/1 2/2/1 3/3/1
f 4/4/2 5/5/2 6/6/2
f 6/6/2 7/7/2 4/4/2
f 8/4/3 9/5/3 10/6/3
f 10/6/3 11/7/3 8/4/3
f 12/8/4 13/9/4 14/10/4
f 14/10/4 15/11/4 12/8/4
f 16/10/5 17/11/5 18/8/5
f 18/8/5 19/9/5 16/10/5
s 1
f 20/12/6 21/13/7 22/14/8
f 20/12/6 23/15/9 21/13/7
f 23/15/9 24/16/10 21/13/7
f 25/17/11 26/18/12 27/19/13
f 28/20/14 27/19/13 23/15/9
f 28/20/14 25/17/11 27/19/13
f 20/12/6 29/21/15 23/15/9
f 29/21/15 28/20/14 23/15/9
f 20/12/6 30/22/16 29/21/15
f 28/20/14 31/23/17 25/17/11
f 27/19/13 32/24/18 23/15/9
f 27/19/13 33/25/19 32/24/18
f 32/24/18 34/26/20 23/15/9
f 35/27/21 36/28/22 28/20/14
f 37/29/23 35/27/21 28/20/14
f 29/21/15 37/29/23 28/20/14
f 29/21/15 38/30/24 37/29/23
f 29/21/15 39/31/25 38/30/24
f 37/29/23 40/32/26 35/27/21
f 38/30/24 41/33/27 37/29/23
f 42/34/28 43/35/28 44/36/29
f 44/36/29 45/37/30 42/34/28
f 45/37/30 44/36/29 46/38/31
f 46/38/31 47/39/32 45/37/30
f 47/39/32 46/38/31 48/40/33
f 48/40/33 49/41/34 47/39/32
f 49/41/34 48/40/33 50/42/35
f 50/42/35 51/43/36 49/41/34
f 51/43/36 50/42/35 52/44/37
f 52/44/37 53/45/38 51/43/36
f 53/45/38 52/44/37 54/46/39
f 54/46/39 55/47/40 53/45/38
f 55/47/40 54/46/39 56/48/41
f 56/48/41 57/49/42 55/47/40
f 57/49/42 56/48/41 58/50/43
f 58/50/43 59/51/43 57/49/42
s 0
f 60/52/44 61/53/44 62/54/44
s 1
f 63/34/45 64/35/45 65/36/46
f 65/36/46 66/37/47 63/34/45
f 66/37/47 65/36/46 67/38/48
f 67/38/48 68/39/49 66/37/47
f 68/39/49 67/38/48 69/40/50
f 69/40/50 70/41/51 68/39/49
f 70/41/51 69/40/50 71/42/52
f 71/42/52 72/43/53 70/41/51
f 72/43/53 71/42/52 73/44/54
f 73/44/54 74/45/55 72/43/53
f 74/45/55 73/44/54 75/46/56
f 75/46/56 76/47/57 74/45/55
f 76/47/57 75/46/56 77/48/58
f 77/48/58 78/49/59 76/47/57
f 78/49/59 77/48/58 79/50/60
f 79/50/60 80/51/60 78/49/59
s 0
f 81/55/61 82/56/61 83/57/61
f 84/58/44 85/59/44 86/60/44
f 84/58/44 86/60/44 87/61/44
f 87/61/44 88/62/44 84/58/44
f 89/63/44 84/58/44 88/62/44
f 90/64/61 91/65/61 92/66/61
f 93/67/62 94/68/62 95/69/62
f 95/69/62 96/70/62 93/67/62
f 97/71/63 831/67/63 98/72/63
f 98/72/63 99/73/63 97/71/63
f 100/74/64 101/75/64 102/76/64
f 102/76/64 103/77/64 100/74/64
f 104/78/65 850/74/65 105/79/65
f 105/79/65 106/80/65 104/78/65
f 107/81/62 839/78/62 108/82/62
f 108/82/62 109/83/62 107/81/62
f 870/75/63 841/81/63 110/84/63
f 110/84/63 111/85/63 870/75/63
f 112/86/64 113/87/64 114/88/64
f 114/88/64 115/89/64 112/86/64
f 116/90/65 827/86/65 117/91/65
f 117/91/65 118/92/65 116/90/65
f 119/93/62 835/90/62 120/94/62
f 120/94/62 121/95/62 119/93/62
f 811/87/63 845/93/63 122/96/63
f 122/96/63 123/97/63 811/87/63
f 124/81/64 125/78/64 126/82/64
f 126/82/64 127/83/64 124/81/64
f 128/75/65 848/81/65 129/84/65
f 129/84/65 130/85/65 128/75/65
f 131/74/62 853/75/62 132/76/62
f 132/76/62 133/77/62 131/74/62
f 803/78/63 855/74/63 134/79/63
f 134/79/63 135/80/63 803/78/63
f 857/68/65 136/98/65 137/99/65
f 137/99/65 138/100/65 857/68/65
f 139/101/61 140/102/61 141/103/61
f 142/104/61 139/101/61 141/103/61
f 143/105/61 142/104/61 141/103/61
f 144/106/61 143/105/61 141/103/61
f 145/107/61 144/106/61 141/103/61
f 146/108/61 145/107/61 141/103/61
f 147/109/61 148/110/61 149/111/61
f 149/111/61 150/112/61 147/109/61
f 151/113/61 152/114/61 153/115/61
f 153/115/61 154/116/61 151/113/61
f 155/117/66 156/118/66 157/119/66
f 157/119/66 158/120/66 155/117/66
f 159/121/67 869/117/67 873/120/67
f 873/120/67 160/122/67 159/121/67
f 161/117/44 162/118/44 163/119/44
f 163/119/44 164/120/44 161/117/44
f 165/121/68 838/117/68 802/120/68
f 802/120/68 166/122/68 165/121/68
f 167/123/44 168/124/44 169/125/44
f 169/125/44 170/126/44 167/123/44
f 171/127/68 872/123/68 806/126/68
f 806/126/68 172/128/68 171/127/68
f 173/126/66 174/125/66 175/124/66
f 175/124/66 176/123/66 173/126/66
f 177/128/67 885/126/67 822/123/67
f 822/123/67 178/127/67 177/128/67
f 179/129/67 180/130/67 181/131/67
f 181/131/67 182/132/67 179/129/67
f 182/132/67 183/133/67 179/129/67
f 181/131/67 184/134/67 182/132/67
f 185/135/66 186/136/66 187/137/66
f 187/137/66 188/138/66 185/135/66
f 188/138/66 189/139/66 185/135/66
f 187/137/66 190/140/66 188/138/66
f 191/141/44 192/142/44 877/131/44
f 191/141/44 877/131/44 815/130/44
f 815/130/44 193/143/44 191/141/44
f 194/144/44 191/141/44 193/143/44
f 195/145/61 196/146/61 197/147/61
f 198/148/68 199/149/68 200/150/68
f 201/137/68 198/148/68 200/150/68
f 201/137/68 202/151/68 198/148/68
f 200/150/68 203/136/68 201/137/68
f 204/138/66 205/140/66 886/137/66
f 204/138/66 886/137/66 887/136/66
f 887/136/66 206/135/66 204/138/66
f 207/139/66 204/138/66 206/135/66
f 208/152/61 209/153/61 210/154/61
f 211/155/61 212/156/61 210/154/61
f 209/153/61 213/157/61 210/154/61
f 213/157/61 211/155/61 210/154/61
s 1
f 814/153/69 214/158/69 874/157/69
f 875/157/70 215/159/70 823/155/70
s 0
f 216/160/61 217/161/61 218/162/61
f 219/132/68 220/134/68 221/131/68
f 219/132/68 221/131/68 222/130/68
f 222/130/68 223/129/68 219/132/68
f 224/133/68 219/132/68 223/129/68
f 225/163/61 226/164/61 227/102/61
f 228/165/61 226/164/61 225/163/61
f 225/163/61 229/166/61 228/165/61
f 230/167/61 228/165/61 229/166/61
s 1
f 888/168/71 232/169/71 807/52/71
s 0
f 233/170/68 234/171/68 235/172/68
f 236/173/68 233/170/68 235/172/68
f 236/173/68 237/174/68 233/170/68
f 235/172/68 238/175/68 236/173/68
f 239/176/66 240/177/66 844/173/66
f 239/176/66 844/173/66 863/175/66
f 863/175/66 241/178/66 239/176/66
f 242/179/66 239/176/66 241/178/66
f 243/180/61 244/181/61 245/182/61
f 246/183/67 247/184/67 248/185/67
f 249/60/67 246/183/67 248/185/67
f 249/60/67 250/186/67 246/183/67
f 248/185/67 251/61/67 249/60/67
f 252/58/44 253/59/44 829/60/44
f 252/58/44 829/60/44 889/61/44
f 889/61/44 254/62/44 252/58/44
f 255/63/44 252/58/44 254/62/44
f 256/187/61 257/188/61 258/189/61
f 259/58/44 260/63/44 261/62/44
f 262/60/44 259/58/44 261/62/44
f 262/60/44 263/59/44 259/58/44
f 261/62/44 264/61/44 262/60/44
f 265/183/68 266/186/68 816/60/68
f 265/183/68 816/60/68 825/61/68
f 825/61/68 267/185/68 265/183/68
f 268/184/68 265/183/68 267/185/68
f 269/190/61 270/191/61 271/192/61
f 272/176/66 273/179/66 274/178/66
f 275/173/66 272/176/66 274/178/66
f 275/173/66 276/177/66 272/176/66
f 274/178/66 277/175/66 275/173/66
s 1
f 278/24/72 279/26/73 280/15/74
f 281/19/75 278/24/72 280/15/74
f 281/19/75 282/25/76 278/24/72
f 283/17/77 284/18/78 281/19/75
f 285/20/79 281/19/75 280/15/74
f 285/20/79 283/17/77 281/19/75
f 286/21/80 285/20/79 280/15/74
f 287/12/81 286/21/80 280/15/74
f 287/12/81 288/22/82 286/21/80
f 285/20/79 289/23/83 283/17/77
f 287/12/81 280/15/74 290/13/84
f 280/15/74 291/16/85 290/13/84
f 287/12/81 290/13/84 292/14/86
f 293/27/87 294/28/88 285/20/79
f 295/29/89 293/27/87 285/20/79
f 286/21/80 295/29/89 285/20/79
f 295/29/89 296/32/90 293/27/87
f 286/21/80 297/30/91 295/29/89
f 297/30/91 298/33/92 295/29/89
f 286/21/80 299/31/93 297/30/91
s 0
f 300/101/1 301/102/1 302/103/1
f 303/104/1 300/101/1 302/103/1
f 304/105/1 303/104/1 302/103/1
f 305/106/1 304/105/1 302/103/1
f 306/107/1 305/106/1 302/103/1
f 307/108/1 306/107/1 302/103/1
f 308/155/1 309/156/1 310/154/1
f 311/157/1 308/155/1 310/154/1
f 312/153/1 311/157/1 310/154/1
f 313/152/1 312/153/1 310/154/1
f 314/109/1 315/110/1 316/111/1
f 316/111/1 317/112/1 314/109/1
f 318/113/1 319/114/1 320/115/1
f 320/115/1 321/116/1 318/113/1
f 322/193/1 323/194/1 324/195/1
f 324/195/1 325/196/1 322/193/1
f 326/197/1 327/198/1 328/199/1
f 328/199/1 329/200/1 326/197/1
f 330/201/1 331/104/1 332/105/1
f 332/105/1 333/202/1 330/201/1
f 334/203/1 335/204/1 336/205/1
f 336/205/1 337/206/1 334/203/1
f 338/167/1 339/207/1 340/208/1
f 340/208/1 341/209/1 338/167/1
f 342/141/44 343/142/44 344/131/44
f 342/141/44 344/131/44 345/130/44
f 345/130/44 346/143/44 342/141/44
f 347/144/44 342/141/44 346/143/44
f 348/1/61 349/2/61 350/3/61
f 351/138/66 352/140/66 353/137/66
f 351/138/66 353/137/66 354/136/66
f 354/136/66 355/135/66 351/138/66
f 356/139/66 351/138/66 355/135/66
f 357/210/61 358/211/61 359/212/61
f 358/211/61 357/210/61 360/213/61
f 360/213/61 361/214/61 358/211/61
f 362/200/61 361/214/61 360/213/61
f 363/176/66 364/177/66 365/173/66
f 363/176/66 365/173/66 366/175/66
f 366/175/66 367/178/66 363/176/66
f 368/179/66 363/176/66 367/178/66
f 369/52/66 370/53/66 371/54/66
f 372/183/67 373/186/67 374/60/67
f 372/183/67 374/60/67 375/61/67
f 375/61/67 376/185/67 372/183/67
f 377/184/67 372/183/67 376/185/67
s 1
f 800/168/94 379/169/94 866/52/94
s 0
f 380/129/68 791/130/68 821/131/68
f 821/131/68 381/132/68 380/129/68
f 381/132/68 382/133/68 380/129/68
f 821/131/68 383/134/68 381/132/68
f 384/150/67 785/136/67 787/137/67
f 787/137/67 385/148/67 384/150/67
f 385/148/67 386/149/67 384/150/67
f 787/137/67 387/151/67 385/148/67
f 388/135/66 389/136/66 390/137/66
f 390/137/66 391/138/66 388/135/66
f 391/138/66 392/139/66 388/135/66
f 390/137/66 393/140/66 391/138/66
f 394/143/44 395/130/44 396/131/44
f 396/131/44 397/141/44 394/143/44
f 397/141/44 398/144/44 394/143/44
f 396/131/44 399/142/44 397/141/44
f 400/172/67 847/175/67 792/173/67
f 792/173/67 401/170/67 400/172/67
f 401/170/67 402/171/67 400/172/67
f 792/173/67 403/174/67 401/170/67
f 404/185/68 801/61/68 810/60/68
f 810/60/68 405/183/68 404/185/68
f 405/183/68 406/184/68 404/185/68
f 810/60/68 407/186/68 405/183/68
f 408/62/44 783/61/44 779/60/44
f 779/60/44 409/58/44 408/62/44
f 409/58/44 410/63/44 408/62/44
f 779/60/44 411/59/44 409/58/44
f 412/215/61 413/216/61 414/217/61
f 415/202/61 412/215/61 414/217/61
f 416/201/61 415/202/61 414/217/61
f 417/218/61 416/201/61 414/217/61
f 418/219/61 417/218/61 414/217/61
f 418/219/61 419/212/61 417/218/61
f 420/141/44 421/144/44 422/143/44
f 865/131/44 420/141/44 422/143/44
f 865/131/44 423/142/44 420/141/44
f 422/143/44 882/130/44 865/131/44
s 1
f 793/157/95 424/159/95 819/155/95
s 0
f 826/54/61 425/220/61 426/221/61
f 808/52/61 826/54/61 426/221/61
f 231/168/61 808/52/61 426/221/61
f 427/222/61 231/168/61 426/221/61
f 428/195/61 429/196/61 430/193/61
f 430/193/61 431/194/61 428/195/61
f 432/197/61 433/198/61 434/199/61
f 434/199/61 435/200/61 432/197/61
f 436/201/61 437/104/61 438/105/61
f 438/105/61 439/202/61 436/201/61
f 440/203/61 441/204/61 442/205/61
f 442/205/61 443/206/61 440/203/61
f 444/167/61 445/207/61 446/208/61
f 446/208/61 447/209/61 444/167/61
f 448/6/2 449/7/2 450/4/2
f 450/4/2 451/5/2 448/6/2
f 452/8/96 453/9/96 454/10/96
f 454/10/96 455/11/96 452/8/96
f 456/10/97 457/11/97 458/8/97
f 458/8/97 459/9/97 456/10/97
f 878/202/67 460/223/67 461/224/67
f 461/224/67 777/201/67 878/202/67
f 880/105/66 462/225/66 463/226/66
f 463/226/66 879/202/66 880/105/66
f 861/104/68 464/227/68 465/228/68
f 465/228/68 881/105/68 861/104/68
f 778/201/44 466/229/44 467/230/44
f 467/230/44 862/104/44 778/201/44
f 468/117/66 469/118/66 470/119/66
f 470/119/66 471/120/66 468/117/66
f 472/121/68 809/117/68 794/120/68
f 794/120/68 473/122/68 472/121/68
f 474/117/44 475/118/44 476/119/44
f 476/119/44 477/120/44 474/117/44
f 478/121/67 799/117/67 780/120/67
f 780/120/67 479/122/67 478/121/67
f 480/123/44 481/124/44 482/125/44
f 482/125/44 483/126/44 480/123/44
f 484/127/67 786/123/67 867/126/67
f 867/126/67 485/128/67 484/127/67
f 486/126/66 487/125/66 488/124/66
f 488/124/66 489/123/66 486/126/66
f 490/128/68 788/126/68 837/123/68
f 837/123/68 491/127/68 490/128/68
f 817/202/68 492/223/68 493/224/68
f 493/224/68 781/201/68 817/202/68
f 833/105/66 494/225/66 495/226/66
f 495/226/66 818/202/66 833/105/66
f 789/104/67 496/227/67 497/228/67
f 497/228/67 834/105/67 789/104/67
f 782/201/44 498/229/44 499/230/44
f 499/230/44 790/104/44 782/201/44
f 500/231/44 501/232/44 502/233/44
f 502/233/44 503/234/44 500/231/44
f 504/235/68 505/236/68 506/237/68
f 506/237/68 507/238/68 504/235/68
f 508/239/67 509/240/67 510/241/67
f 510/241/67 511/242/67 508/239/67
f 864/239/66 805/236/66 796/235/66
f 796/235/66 775/240/66 864/239/66
f 859/98/44 858/68/44 832/67/44
f 832/67/44 797/71/44 859/98/44
f 851/74/44 840/78/44 842/81/44
f 842/81/44 871/75/44 851/74/44
f 828/86/44 836/90/44 846/93/44
f 846/93/44 812/87/44 828/86/44
f 512/86/44 513/90/44 514/93/44
f 514/93/44 515/87/44 512/86/44
f 856/74/44 804/78/44 849/81/44
f 849/81/44 854/75/44 856/74/44
f 769/87/65 771/93/65 516/96/65
s 1
f 516/96/65 517/97/65 769/87/65
s 0
f 883/86/62 770/87/62 518/88/62
f 518/88/62 519/89/62 883/86/62
f 773/90/63 884/86/63 520/91/63
f 520/91/63 521/92/63 773/90/63
f 772/93/64 774/90/64 522/94/64
f 522/94/64 523/95/64 772/93/64
f 524/243/64 525/244/64 860/98/64
f 860/98/64 798/71/64 524/243/64
f 526/170/67 527/174/67 876/173/67
f 526/170/67 876/173/67 890/175/67
f 890/175/67 528/172/67 526/170/67
f 529/171/67 526/170/67 528/172/67
s 1
f 312/153/1 530/158/1 311/157/1
s 0
f 531/4/98 532/5/98 533/6/98
f 533/6/98 534/7/98 531/4/98
f 535/4/99 536/5/99 537/6/99
f 537/6/99 538/7/99 535/4/99
f 539/10/100 540/11/100 541/8/100
f 541/8/100 542/9/100 539/10/100
f 543/8/101 544/9/101 545/10/101
f 545/10/101 546/11/101 543/8/101
f 547/4/3 548/5/3 549/6/3
f 549/6/3 550/7/3 547/4/3
f 551/178/66 552/175/66 553/173/66
f 553/173/66 554/176/66 551/178/66
f 554/176/66 555/179/66 551/178/66
f 553/173/66 556/177/66 554/176/66
f 557/170/68 558/174/68 813/173/68
f 557/170/68 813/173/68 776/175/68
f 776/175/68 559/172/68 557/170/68
f 560/171/68 557/170/68 559/172/68
f 561/145/1 562/146/1 563/147/1
f 564/4/99 565/5/99 566/6/99
f 566/6/99 567/7/99 564/4/99
f 568/4/98 569/5/98 570/6/98
f 570/6/98 571/7/98 568/4/98
f 572/10/102 573/11/102 574/8/102
f 574/8/102 575/9/102 572/10/102
f 576/10/103 577/11/103 578/8/103
f 578/8/103 579/9/103 576/10/103
f 580/148/67 581/151/67 852/137/67
f 580/148/67 852/137/67 824/136/67
f 824/136/67 582/150/67 580/148/67
f 583/149/67 580/148/67 582/150/67
f 584/55/1 585/56/1 586/57/1
f 587/245/61 588/246/61 589/247/61
f 590/248/61 587/245/61 589/247/61
f 591/249/61 590/248/61 589/247/61
f 592/250/61 591/249/61 589/247/61
f 593/251/61 592/250/61 589/247/61
f 594/252/61 593/251/61 589/247/61
f 595/253/61 596/254/61 597/255/61
f 598/256/61 595/253/61 597/255/61
f 599/257/61 598/256/61 597/255/61
f 599/257/61 600/258/61 598/256/61
f 599/257/61 601/259/61 600/258/61
f 599/257/61 602/260/61 601/259/61
f 603/215/1 604/216/1 605/217/1
f 606/202/1 603/215/1 605/217/1
f 607/201/1 606/202/1 605/217/1
f 608/218/1 607/201/1 605/217/1
f 609/219/1 608/218/1 605/217/1
f 609/219/1 610/212/1 608/218/1
f 611/64/1 612/65/1 613/66/1
f 614/245/1 615/246/1 616/247/1
f 617/248/1 614/245/1 616/247/1
f 618/249/1 617/248/1 616/247/1
f 619/250/1 618/249/1 616/247/1
f 620/251/1 619/250/1 616/247/1
f 621/252/1 620/251/1 616/247/1
f 622/253/1 623/254/1 624/255/1
f 625/256/1 622/253/1 624/255/1
f 626/257/1 625/256/1 624/255/1
f 626/257/1 627/258/1 625/256/1
f 626/257/1 628/259/1 627/258/1
f 626/257/1 629/260/1 628/259/1
f 784/54/1 630/220/1 631/221/1
f 868/52/1 784/54/1 631/221/1
f 378/168/1 868/52/1 631/221/1
f 632/222/1 378/168/1 631/221/1
f 633/200/1 634/214/1 635/213/1
f 635/213/1 634/214/1 636/211/1
f 636/211/1 637/210/1 635/213/1
f 637/210/1 636/211/1 638/212/1
f 639/148/68 640/151/68 843/137/68
f 639/148/68 843/137/68 820/136/68
f 820/136/68 641/150/68 639/148/68
f 642/149/68 639/148/68 641/150/68
f 643/160/1 644/161/1 645/162/1
f 646/132/67 647/134/67 830/131/67
f 646/132/67 830/131/67 795/130/67
f 795/130/67 648/129/67 646/132/67
f 649/133/67 646/132/67 648/129/67
f 650/163/1 651/164/1 652/102/1
f 653/165/1 651/164/1 650/163/1
f 650/163/1 654/166/1 653/165/1
f 655/167/1 653/165/1 654/166/1
f 656/180/1 657/181/1 658/182/1
s 1
f 659/34/60 660/35/60 661/36/59
f 661/36/59 662/37/58 659/34/60
f 662/37/58 661/36/59 663/38/57
f 663/38/57 664/39/56 662/37/58
f 664/39/56 663/38/57 665/40/55
f 665/40/55 666/41/54 664/39/56
f 666/41/54 665/40/55 667/42/53
f 667/42/53 668/43/52 666/41/54
f 668/43/52 667/42/53 669/44/51
f 669/44/51 670/45/50 668/43/52
f 670/45/50 669/44/51 671/46/49
f 671/46/49 672/47/48 670/45/50
f 672/47/48 671/46/49 673/48/47
f 673/48/47 674/49/46 672/47/48
f 674/49/46 673/48/47 675/50/45
f 675/50/45 676/51/45 674/49/46
s 0
f 677/187/1 678/188/1 679/189/1
s 1
f 680/50/28 681/51/28 682/49/29
f 682/49/29 683/48/30 680/50/28
f 683/48/30 682/49/29 684/47/31
f 684/47/31 685/46/32 683/48/30
f 685/46/32 684/47/31 686/45/33
f 686/45/33 687/44/34 685/46/32
f 687/44/34 686/45/33 688/43/35
f 688/43/35 689/42/36 687/44/34
f 689/42/36 688/43/35 690/41/37
f 690/41/37 691/40/38 689/42/36
f 691/40/38 690/41/37 692/39/39
f 692/39/39 693/38/40 691/40/38
f 693/38/40 692/39/39 694/37/41
f 694/37/41 695/36/42 693/38/40
f 695/36/42 694/37/41 696/34/43
f 696/34/43 697/35/43 695/36/42
s 0
f 698/261/1 699/262/1 700/107/1
f 699/262/1 698/261/1 701/263/1
f 701/263/1 702/264/1 699/262/1
f 703/206/1 702/264/1 701/263/1
s 1
f 37/29/23 704/265/104 705/266/105
f 704/265/104 37/29/23 41/33/27
f 41/33/27 706/267/106 704/265/104
f 706/267/106 41/33/27 38/30/24
f 38/30/24 707/268/107 706/267/106
f 707/268/107 38/30/24 39/31/25
f 39/31/25 708/269/108 707/268/107
f 708/269/108 39/31/25 29/21/15
f 29/21/15 709/270/109 708/269/108
f 709/270/109 29/21/15 30/22/16
f 30/22/16 710/271/110 709/270/109
f 710/271/110 30/22/16 20/12/6
f 20/12/6 711/272/111 710/271/110
f 711/272/111 20/12/6 22/14/8
f 22/14/8 712/273/112 711/272/111
f 712/273/112 22/14/8 21/13/7
f 21/13/7 713/274/113 712/273/112
f 713/274/113 21/13/7 24/16/10
f 24/16/10 714/275/114 713/274/113
f 714/275/114 24/16/10 23/15/9
f 23/15/9 715/276/115 714/275/114
f 715/276/115 23/15/9 34/26/20
f 34/26/20 716/277/116 715/276/115
f 716/277/116 34/26/20 32/24/18
f 32/24/18 717/278/117 716/277/116
f 717/278/117 32/24/18 33/25/19
f 33/25/19 718/279/118 717/278/117
f 718/279/118 33/25/19 27/19/13
f 27/19/13 719/280/119 718/279/118
f 719/280/119 27/19/13 26/18/12
f 26/18/12 720/281/120 719/280/119
f 720/281/120 26/18/12 25/17/11
f 25/17/11 721/282/121 720/281/120
f 721/282/121 25/17/11 31/23/17
f 31/23/17 722/283/122 721/282/121
f 722/283/122 31/23/17 28/20/14
f 28/20/14 723/284/123 722/283/122
f 723/284/123 28/20/14 36/28/22
f 36/28/22 724/285/124 723/284/123
f 724/285/124 36/28/22 35/27/21
f 35/27/21 725/286/125 724/285/124
f 40/32/26 705/266/105 725/286/125
f 705/266/105 40/32/26 37/29/23
f 725/286/125 35/27/21 40/32/26
s 0
f 726/190/1 727/191/1 728/192/1
s 1
f 283/17/77 729/282/126 730/281/127
f 729/282/126 283/17/77 289/23/83
f 289/23/83 731/283/128 729/282/126
f 731/283/128 289/23/83 285/20/79
f 285/20/79 732/284/129 731/283/128
f 732/284/129 285/20/79 294/28/88
f 294/28/88 733/285/130 732/284/129
f 733/285/130 294/28/88 293/27/87
f 293/27/87 734/286/131 733/285/130
f 734/286/131 293/27/87 296/32/90
f 296/32/90 735/266/132 734/286/131
f 735/266/132 296/32/90 295/29/89
f 295/29/89 736/265/133 735/266/132
f 736/265/133 295/29/89 298/33/92
f 298/33/92 737/267/134 736/265/133
f 737/267/134 298/33/92 297/30/91
f 297/30/91 738/268/135 737/267/134
f 738/268/135 297/30/91 299/31/93
f 299/31/93 739/269/136 738/268/135
f 739/269/136 299/31/93 286/21/80
f 286/21/80 740/270/137 739/269/136
f 740/270/137 286/21/80 288/22/82
f 288/22/82 741/271/138 740/270/137
f 741/271/138 288/22/82 287/12/81
f 287/12/81 742/272/139 741/271/138
f 742/272/139 287/12/81 292/14/86
f 292/14/86 743/273/140 742/272/139
f 743/273/140 292/14/86 290/13/84
f 290/13/84 744/274/141 743/273/140
f 744/274/141 290/13/84 291/16/85
f 291/16/85 745/275/142 744/274/141
f 745/275/142 291/16/85 280/15/74
f 280/15/74 746/276/143 745/275/142
f 746/276/143 280/15/74 279/26/73
f 279/26/73 747/277/144 746/276/143
f 747/277/144 279/26/73 278/24/72
f 278/24/72 748/278/145 747/277/144
f 748/278/145 278/24/72 282/25/76
f 282/25/76 749/279/146 748/278/145
f 749/279/146 282/25/76 281/19/75
f 281/19/75 750/280/147 749/279/146
f 284/18/78 730/281/127 750/280/147
f 730/281/127 284/18/78 283/17/77
f 750/280/147 281/19/75 284/18/78
s 0
f 751/287/61 752/288/61 753/216/61
f 752/288/61 751/287/61 754/289/61
f 754/289/61 755/290/61 752/288/61
f 756/193/61 755/290/61 754/289/61
f 757/287/1 758/288/1 759/216/1
f 758/288/1 757/287/1 760/289/1
f 760/289/1 761/290/1 758/288/1
f 762/193/1 761/290/1 760/289/1
f 763/261/61 764/262/61 765/107/61
f 764/262/61 763/261/61 766/263/61
f 766/263/61 767/264/61 764/262/61
f 768/206/61 767/264/61 766/263/61
